<svg width="13" height="8" viewBox="0 0 13 8" fill="none" xmlns="http://www.w3.org/2000/svg">
<path d="M0.555479 0.912833C0.600675 0.396306 1.03317 0 1.55167 0H11.7361C12.3228 0 12.7835 0.502714 12.7323 1.08717L12.272 6.34835C12.2268 6.86487 11.7943 7.26118 11.2758 7.26118H1.09132C0.504639 7.26118 0.0439896 6.75847 0.0951288 6.17401L0.555479 0.912833Z" fill="#2A3147"/>
<mask id="mask0_42_4706" style="mask-type:alpha" maskUnits="userSpaceOnUse" x="0" y="0" width="13" height="8">
<path d="M0.555479 0.912833C0.600675 0.396306 1.03317 0 1.55167 0H11.7361C12.3228 0 12.7835 0.502714 12.7323 1.08717L12.272 6.34835C12.2268 6.86487 11.7943 7.26118 11.2758 7.26118H1.09132C0.504639 7.26118 0.0439896 6.75847 0.0951288 6.17401L0.555479 0.912833Z" fill="#EA3BC6"/>
</mask>
<g mask="url(#mask0_42_4706)">
<rect x="-0.228516" y="-0.51416" width="13.4262" height="4.29297" fill="#21273A"/>
</g>
</svg>
