<svg width="1207" height="337" viewBox="0 0 1207 337" fill="none" xmlns="http://www.w3.org/2000/svg">
<path d="M171.542 116.93C171.579 116.406 172.015 116 172.54 116H1205.61C1206.3 116 1206.78 116.669 1206.56 117.316L1161.57 252.316C1161.43 252.725 1161.05 253 1160.62 253H163.073C162.493 253 162.034 252.508 162.075 251.93L171.542 116.93Z" fill="black"/>
<path d="M199.171 101.933C199.207 101.408 199.643 101 200.169 101H1193.01C1193.69 101 1194.17 101.66 1193.96 102.306L1150.72 236.946C1150.59 237.36 1150.21 237.64 1149.77 237.64H191.07C190.491 237.64 190.033 237.15 190.072 236.573L199.171 101.933Z" fill="#02309D"/>
<path fill-rule="evenodd" clip-rule="evenodd" d="M114.891 239.641C114.425 239.44 113.96 239.233 113.497 239.019C87.6067 227.099 73.7194 199.393 77.1101 171.352L51.377 167.117L63.9321 128.207L88.7038 138.921L88.0304 141.222C105.966 113.4 140.906 101.814 170.408 115.398C202.887 130.353 216.477 170.149 200.761 204.286C191.139 225.188 172.761 239.121 152.502 243.351L146.259 271.475L106.804 260.703L114.891 239.641Z" fill="black"/>
<path fill-rule="evenodd" clip-rule="evenodd" d="M87.4899 132.188C107.765 106.514 142.705 96.3699 172.789 110.222C208.366 126.603 222.851 169.918 205.934 206.664C196.127 227.967 177.849 242.635 157.288 248.066L151.819 272.706C151.481 274.226 150.535 275.542 149.202 276.347C147.868 277.151 146.263 277.374 144.76 276.964L105.305 266.192C103.752 265.768 102.451 264.707 101.723 263.272C100.996 261.836 100.91 260.159 101.487 258.657L107.692 242.495C83.2102 229.524 69.7025 203.256 70.9966 176.113L50.4528 172.731C48.8165 172.462 47.3787 171.493 46.5149 170.078C45.6512 168.662 45.4472 166.941 45.9563 165.363L58.5113 126.453C59.0042 124.926 60.1191 123.677 61.5816 123.015C63.044 122.353 64.7181 122.339 66.1917 122.977L87.4899 132.188ZM82.4632 142.422L67.4269 135.919L58.8279 162.568L78.0335 165.729C81.0442 166.225 83.1301 169.004 82.7639 172.033C79.6421 197.851 92.4401 223.052 115.877 233.843C116.299 234.037 116.721 234.225 117.145 234.408C119.951 235.618 121.303 238.827 120.208 241.679L114.377 256.864L141.993 264.403L146.942 242.112C147.426 239.928 149.146 238.23 151.336 237.773C169.834 233.911 186.722 221.157 195.587 201.9C210.101 170.373 197.407 134.094 168.026 120.566C141.33 108.274 109.357 118.647 92.8174 144.304C91.2844 146.682 88.2373 147.574 85.6633 146.397C83.9805 145.628 82.8337 144.128 82.4632 142.422Z" fill="black"/>
<path fill-rule="evenodd" clip-rule="evenodd" d="M191.776 59.9335L237.348 78.1186L226.581 99.023C248.191 115.792 259.079 142.369 256.604 168.769L280.032 174.861L261.315 220.682L241.081 208.999C224.786 230.871 198.833 242.342 172.837 240.802L166.319 264.465L120.483 246.956L132.075 226.423C108.784 209.904 96.882 182.42 99.3049 155.072L75.6702 148.904L94.9656 103.806L114.733 114.613C131.703 91.7028 159.243 80.1393 186.389 82.8962L191.776 59.9335Z" fill="white"/>
<path fill-rule="evenodd" clip-rule="evenodd" d="M248.017 74.1276C249.142 77.135 248.945 80.477 247.475 83.3309L240.802 96.2864C258.334 113.181 267.984 136.311 268.33 160.047L282.896 163.834C286.076 164.661 288.744 166.821 290.216 169.758C291.688 172.695 291.819 176.125 290.577 179.165L271.859 224.987C270.615 228.032 268.115 230.39 265.003 231.455C261.89 232.519 258.469 232.186 255.619 230.541L243.663 223.637C227.229 241.184 204.74 251.195 181.502 252.234L177.301 267.487C176.448 270.582 174.329 273.173 171.464 274.623C168.599 276.072 165.256 276.245 162.256 275.1L116.419 257.591C113.321 256.407 110.892 253.932 109.767 250.813C108.642 247.693 108.932 244.238 110.562 241.351L117.399 229.242C98.5458 212.29 88.0914 188.381 87.6213 163.789L72.7958 159.92C69.5866 159.083 66.9014 156.889 65.4416 153.911C63.9818 150.933 63.8924 147.467 65.1966 144.419L84.4921 99.3198C85.7548 96.3683 88.205 94.0871 91.2393 93.0378C94.2737 91.9885 97.6104 92.2685 100.428 93.809L111.972 100.12C129.137 81.6095 153.006 71.384 177.452 71.1082L180.685 57.3262C181.443 54.098 183.57 51.3604 186.511 49.8285C189.452 48.2966 192.915 48.1225 195.995 49.3518L241.568 67.5368C244.55 68.727 246.892 71.1203 248.017 74.1276ZM186.389 82.8922C159.242 80.1352 131.702 91.6988 114.732 114.608L94.965 103.801L75.6696 148.9L99.3043 155.068C96.8814 182.416 108.784 209.899 132.074 226.419L120.482 246.952L166.319 264.461L172.836 240.798C198.832 242.338 224.785 230.867 241.08 208.995L261.314 220.678L280.032 174.857L256.603 168.765C259.079 142.365 248.191 115.788 226.581 99.019L237.348 78.1146L191.775 59.9295L186.389 82.8922Z" fill="black"/>
<path d="M220.086 187.746C206.623 211.064 177.236 219.302 154.448 206.145C131.659 192.988 124.099 163.419 137.562 140.101C151.025 116.782 180.413 108.545 203.201 121.702C225.989 134.858 233.549 164.428 220.086 187.746Z" fill="black"/>
<path d="M198.466 176.208C191.687 187.95 176.8 192.047 165.215 185.358C153.63 178.67 149.735 163.729 156.514 151.987C163.293 140.245 178.18 136.149 189.765 142.837C201.349 149.526 205.245 164.466 198.466 176.208Z" fill="#EE1F1F"/>
<path d="M178.727 160.768C172.777 165.11 165.118 164.746 161.621 159.955C158.125 155.164 160.114 147.761 166.065 143.42C172.016 139.078 179.675 139.442 183.171 144.233C186.668 149.023 184.678 156.426 178.727 160.768Z" fill="#FF6F20"/>
</svg>
