<svg width="8342" height="4700" viewBox="0 0 8342 4700" fill="none" xmlns="http://www.w3.org/2000/svg" xmlns:xlink="http://www.w3.org/1999/xlink">
<rect x="40" width="8302" height="4700" rx="155" fill="#686868"/>
<rect x="24" y="24" width="8290" height="4586" rx="179" fill="#034CD6" stroke="black" stroke-width="48"/>
<mask id="path-3-inside-1_17_190" fill="white">
<path d="M48 203C48 117.396 117.396 48 203 48H8135C8220.6 48 8290 117.396 8290 203V4431C8290 4516.6 8220.6 4586 8135 4586H203C117.396 4586 48 4516.6 48 4431V203Z"/>
</mask>
<path d="M48 203C48 117.396 117.396 48 203 48H8135C8220.6 48 8290 117.396 8290 203V4431C8290 4516.6 8220.6 4586 8135 4586H203C117.396 4586 48 4516.6 48 4431V203Z" fill="url(#paint0_linear_17_190)"/>
<path d="M48 203C48 117.396 117.396 48 203 48H8135C8220.6 48 8290 117.396 8290 203V4431C8290 4516.6 8220.6 4586 8135 4586H203C117.396 4586 48 4516.6 48 4431V203Z" fill="url(#pattern0_17_190)" fill-opacity="0.2"/>
<path d="M48 203C48 68.7948 156.795 -40 291 -40H8135C8269.21 -40 8378 68.7948 8378 203H8202C8202 165.997 8172 136 8135 136H203C117.396 136 48 165.997 48 203ZM48 203M8290 4586H48H8290M8290 4586M48 4586V48V4586M8135 -40C8269.21 -40 8378 68.7948 8378 203V4343C8378 4477.21 8269.21 4586 8135 4586C8172 4586 8202 4516.6 8202 4431V203C8202 165.997 8172 136 8135 136V-40Z" fill="url(#paint2_linear_17_190)" mask="url(#path-3-inside-1_17_190)"/>
<defs>
<linearGradient id="paint0_linear_17_190" x1="4169" y1="48" x2="4169" y2="4586" gradientUnits="userSpaceOnUse">
<stop stop-color="#034CD6"/>
<stop offset="1" stop-color="#022870"/>
</linearGradient>
<linearGradient id="paint2_linear_17_190" x1="4169" y1="48" x2="4169" y2="4586" gradientUnits="userSpaceOnUse">
<stop stop-color="#4782FF"/>
<stop offset="1" stop-color="#09348F"/>
</linearGradient>
<pattern id="pattern0_17_190" patternUnits="userSpaceOnUse" patternTransform="matrix(672.268 0 0 672.268 48.0002 48)" preserveAspectRatio="none" viewBox="0.000244141 0 672.268 672.268" width="1" height="1">
<g id="pattern0_17_190_inner">
<g clip-path="url(#clip0_17_190)">
<path d="M424.435 304.031C423.752 302.158 423.011 300.307 422.214 298.479L428.176 121.326L304.024 247.837C302.153 248.517 300.304 249.258 298.48 250.057L121.325 244.09L247.832 368.24C248.516 370.114 249.257 371.965 250.054 373.793L244.093 550.943L368.235 424.437C370.112 423.755 371.967 423.014 373.797 422.215L550.944 428.179L424.435 304.031ZM319.682 374.531C298.48 365.446 288.655 340.887 297.741 319.681C306.826 298.479 331.383 288.656 352.585 297.741C373.789 306.826 383.611 331.38 374.526 352.582C365.44 373.788 340.885 383.616 319.682 374.531Z" fill="url(#paint1_linear_17_190)"/>
</g>
</g>
</pattern><linearGradient id="paint1_linear_17_190" x1="428.176" y1="121.326" x2="244.093" y2="550.943" gradientUnits="userSpaceOnUse">
<stop stop-color="white"/>
<stop offset="1" stop-color="white" stop-opacity="0.3"/>
</linearGradient>
<clipPath id="clip0_17_190">
<rect width="512" height="512" fill="white" transform="translate(201.651) rotate(23.1942)"/>
</clipPath>
</defs>
</svg>
