<svg width="51" height="54" viewBox="0 0 51 54" fill="none" xmlns="http://www.w3.org/2000/svg">
<circle cx="25.479" cy="28.3403" r="25.3403" fill="#131838"/>
<circle cx="25.4792" cy="27.6569" r="18.7405" fill="#D32D1D"/>
<g filter="url(#filter0_i_108_601)">
<circle cx="25.4755" cy="27.6615" r="17.7758" fill="#A74747"/>
</g>
<mask id="mask0_108_601" style="mask-type:alpha" maskUnits="userSpaceOnUse" x="-1" y="7" width="28" height="47">
<path d="M26.1179 28.9719V53.3545H-0.583817L-0.583984 7.23029L26.1179 28.9719Z" fill="#D9D9D9"/>
</mask>
<g mask="url(#mask0_108_601)">
<path d="M25.4761 4.74023C38.5098 4.7405 49.0757 15.307 49.0757 28.3408C49.0754 41.3744 38.5097 51.9402 25.4761 51.9404C12.4423 51.9404 1.87575 41.3746 1.87549 28.3408C1.87549 15.3068 12.4421 4.74023 25.4761 4.74023ZM25.4751 7.65625C14.0516 7.65645 4.7915 16.9172 4.7915 28.3408C4.79157 39.7643 14.0516 49.0252 25.4751 49.0254C36.8988 49.0254 46.1596 39.7645 46.1597 28.3408C46.1597 16.9171 36.8988 7.65625 25.4751 7.65625Z" fill="#F4C60B"/>
</g>
<g clip-path="url(#clip0_108_601)">
<path d="M12 15H39V42H12V15Z" fill="black" fill-opacity="0.01"/>
<path d="M25.4628 16.0092C21.1761 16.0004 17.0066 18.2224 14.7069 22.2058C11.2839 28.1345 13.3089 35.7023 19.2377 39.1252C25.1665 42.5482 32.733 40.518 36.1558 34.5893C39.5788 28.6606 37.5519 21.096 31.6232 17.673C29.6778 16.5499 27.5563 16.0135 25.4628 16.0092V16.0092ZM29.2736 21.5168C30.5334 21.522 31.7826 21.8356 32.9185 22.4911C36.7448 24.6989 37.8537 29.9597 35.3885 34.2271C32.9234 38.4942 27.8081 40.1689 23.9818 37.9611C20.1556 35.7532 19.049 30.4886 21.5141 26.2214C23.2475 23.2208 26.2899 21.5041 29.2736 21.5167V21.5168ZM32.9573 23.7526C33.6802 24.9299 33.9615 26.4736 33.7733 28.1187C33.42 27.478 32.9062 26.9336 32.2464 26.5538C30.1333 25.3372 27.3039 26.2572 25.9425 28.6086C24.581 30.9598 25.1937 33.8683 27.3069 35.0847C27.8616 35.4041 28.4662 35.5757 29.0805 35.6128C27.1585 36.803 25.018 37.0609 23.3327 36.0883C23.2292 36.0283 23.1283 35.9642 23.0301 35.896C23.4606 36.3548 23.9564 36.7477 24.5014 37.062C27.8908 39.0177 32.3952 37.5399 34.5788 33.7598C36.6375 30.1962 35.8894 25.8746 32.9573 23.7526ZM30.1566 27.0242C30.6984 27.0307 31.2359 27.1684 31.7268 27.451C33.4026 28.4157 33.8825 30.6934 32.8028 32.5581C31.7232 34.4228 29.5022 35.1524 27.8263 34.1877C26.373 33.351 25.8222 31.523 26.4056 29.836C26.6304 30.7311 27.4457 31.401 28.4073 31.401C29.5403 31.401 30.4684 30.4712 30.4684 29.3386C30.4684 28.3187 29.7157 27.4653 28.7385 27.3056C29.1607 27.13 29.605 27.0336 30.0484 27.0247C30.0845 27.024 30.1206 27.0238 30.1567 27.0243L30.1566 27.0242Z" fill="#FFBAB4"/>
</g>
<defs>
<filter id="filter0_i_108_601" x="7.69971" y="9.38571" width="35.5515" height="36.0516" filterUnits="userSpaceOnUse" color-interpolation-filters="sRGB">
<feFlood flood-opacity="0" result="BackgroundImageFix"/>
<feBlend mode="normal" in="SourceGraphic" in2="BackgroundImageFix" result="shape"/>
<feColorMatrix in="SourceAlpha" type="matrix" values="0 0 0 0 0 0 0 0 0 0 0 0 0 0 0 0 0 0 127 0" result="hardAlpha"/>
<feOffset dy="-2"/>
<feGaussianBlur stdDeviation="0.25"/>
<feComposite in2="hardAlpha" operator="arithmetic" k2="-1" k3="1"/>
<feColorMatrix type="matrix" values="0 0 0 0 0.803922 0 0 0 0 0.529412 0 0 0 0 0.411765 0 0 0 1 0"/>
<feBlend mode="normal" in2="shape" result="effect1_innerShadow_108_601"/>
</filter>
<clipPath id="clip0_108_601">
<rect width="27" height="27" fill="white" transform="translate(12 15)"/>
</clipPath>
</defs>
</svg>
