<svg width="185" height="65" viewBox="0 0 185 65" fill="none" xmlns="http://www.w3.org/2000/svg">
<path d="M180.629 43.2497C182.194 43.2497 183.431 44.5769 183.322 46.1384L182.265 61.2643C182.167 62.679 180.99 63.7761 179.572 63.7761H3.40015C1.835 63.776 0.597811 62.4497 0.706787 60.8884L1.76343 45.7614C1.86239 44.347 3.03889 43.2499 4.45679 43.2497H180.629Z" fill="#3F0224" stroke="black" stroke-width="1.4"/>
<mask id="mask0_39_3413" style="mask-type:alpha" maskUnits="userSpaceOnUse" x="1" y="43" width="182" height="21">
<path d="M2.462 45.8105C2.53522 44.7626 3.40666 43.9499 4.45713 43.9499H180.629C181.788 43.9499 182.705 44.9327 182.624 46.0893L181.567 61.2158C181.494 62.2637 180.623 63.0764 179.572 63.0764H3.40024C2.24078 63.0764 1.32428 62.0936 1.4051 60.937L2.462 45.8105Z" fill="#D9D9D9"/>
</mask>
<g mask="url(#mask0_39_3413)">
<rect x="-2.05396" y="55.5363" width="186.681" height="11.999" fill="#56022F"/>
</g>
<path d="M45.3142 43.2497C46.8828 43.2498 48.121 44.5827 48.0066 46.1472L46.9011 61.2731C46.798 62.6842 45.6226 63.7761 44.2078 63.7761H3.40698C1.83838 63.776 0.600266 62.444 0.7146 60.8796L1.82007 45.7526C1.92341 44.3418 3.09877 43.2497 4.51343 43.2497H45.3142Z" fill="#BE4545" stroke="black" stroke-width="1.4"/>
<mask id="mask1_39_3413" style="mask-type:alpha" maskUnits="userSpaceOnUse" x="1" y="43" width="47" height="21">
<path d="M2.51837 45.8041C2.59478 44.7589 3.46505 43.9499 4.51304 43.9499H45.314C46.476 43.9499 47.3934 44.9368 47.3087 46.0957L46.2028 61.2222C46.1264 62.2674 45.2561 63.0764 44.2081 63.0764H3.40717C2.24516 63.0764 1.32777 62.0894 1.41249 60.9305L2.51837 45.8041Z" fill="#F0752A"/>
</mask>
<g mask="url(#mask1_39_3413)">
<rect x="0.444092" y="52.6672" width="47.0215" height="12.3657" fill="#E94C4C"/>
<rect x="37.7351" y="40.2849" width="11.293" height="25.8604" transform="rotate(3.23592 37.7351 40.2849)" fill="#FF8F8F"/>
<rect x="43.3621" y="40.2849" width="11.293" height="25.8604" transform="rotate(3.23592 43.3621 40.2849)" fill="#FEFCFF"/>
</g>
<mask id="mask2_39_3413" style="mask-type:alpha" maskUnits="userSpaceOnUse" x="1" y="43" width="47" height="21">
<path d="M2.51837 45.8041C2.59478 44.7589 3.46505 43.9499 4.51304 43.9499H45.314C46.476 43.9499 47.3934 44.9368 47.3087 46.0957L46.2028 61.2222C46.1264 62.2674 45.2561 63.0764 44.2082 63.0764H3.40717C2.24516 63.0764 1.32777 62.0894 1.41249 60.9305L2.51837 45.8041Z" fill="#F0752A"/>
</mask>
<g mask="url(#mask2_39_3413)">
<mask id="mask3_39_3413" style="mask-type:alpha" maskUnits="userSpaceOnUse" x="0" y="52" width="48" height="14">
<rect x="0.444092" y="52.6672" width="47.0215" height="12.3657" fill="#DC5C48"/>
</mask>
<g mask="url(#mask3_39_3413)">
<rect x="37.7351" y="40.2849" width="11.293" height="25.8604" transform="rotate(3.23592 37.7351 40.2849)" fill="#FFABAB"/>
</g>
</g>
<mask id="mask4_39_3413" style="mask-type:alpha" maskUnits="userSpaceOnUse" x="1" y="43" width="47" height="21">
<path d="M2.51837 45.8041C2.59478 44.7589 3.46505 43.9499 4.51304 43.9499H45.314C46.476 43.9499 47.3934 44.9368 47.3087 46.0957L46.2028 61.2222C46.1264 62.2674 45.2561 63.0764 44.2082 63.0764H3.40717C2.24516 63.0764 1.32777 62.0894 1.41249 60.9305L2.51837 45.8041Z" fill="#F0752A"/>
</mask>
<g mask="url(#mask4_39_3413)">
<mask id="mask5_39_3413" style="mask-type:alpha" maskUnits="userSpaceOnUse" x="0" y="52" width="48" height="14">
<rect x="0.444092" y="52.6672" width="47.0215" height="12.3657" fill="#DC5C48"/>
</mask>
<g mask="url(#mask5_39_3413)">
<rect x="43.3621" y="40.2849" width="11.293" height="25.8604" transform="rotate(3.23592 43.3621 40.2849)" fill="#FFFFFD"/>
</g>
</g>
</svg>
