<svg width="185" height="23" viewBox="0 42 185 23" fill="none" preserveAspectRatio="none" xmlns="http://www.w3.org/2000/svg">
<path d="M180.629 43.2497C182.194 43.2497 183.431 44.5769 183.322 46.1384L182.265 61.2643C182.167 62.679 180.99 63.7761 179.572 63.7761H3.40015C1.835 63.776 0.597811 62.4497 0.706787 60.8884L1.76343 45.7614C1.86239 44.347 3.03889 43.2499 4.45679 43.2497H180.629Z" fill="#BE4545" stroke="black" stroke-width="1.4"/>
<mask id="bossfillmask" style="mask-type:alpha" maskUnits="userSpaceOnUse" x="1" y="43" width="182" height="21">
<path d="M2.462 45.8105C2.53522 44.7626 3.40666 43.9499 4.45713 43.9499H180.629C181.788 43.9499 182.705 44.9327 182.624 46.0893L181.567 61.2158C181.494 62.2637 180.623 63.0764 179.572 63.0764H3.40024C2.24078 63.0764 1.32428 62.0936 1.4051 60.937L2.462 45.8105Z" fill="#D9D9D9"/>
</mask>
<g mask="url(#bossfillmask)">
<rect x="-2" y="55.5363" width="190" height="11.999" fill="#E94C4C"/>
<rect x="-2" y="44.6" width="190" height="6.6" fill="#FF8F8F" fill-opacity="0.55"/>
</g>
</svg>
