<svg width="17" height="23" viewBox="0 0 17 23" fill="none" xmlns="http://www.w3.org/2000/svg">
<path d="M15.1088 17.1878C14.9316 20.3398 11.2052 22.9997 7.03596 22.5879C2.70842 22.1605 0.163129 19.3579 0.163129 16.206C0.340333 13.0541 3.55768 10.9828 7.74064 11.2179C11.9236 11.4531 15.286 14.0359 15.1088 17.1878Z" fill="black"/>
<path d="M15.9156 15.0043C15.7347 18.2226 12.2756 20.7173 8.01856 20.2969C3.59994 19.8604 0.763502 17.2968 0.763502 14.0786C0.944436 10.8603 4.29302 8.60207 8.56403 8.84219C12.835 9.08231 16.0965 11.786 15.9156 15.0043Z" fill="#3D7FFF"/>
<path fill-rule="evenodd" clip-rule="evenodd" d="M-4.95843e-05 14.0576L0.00115441 14.0362C0.216072 10.2134 4.12537 7.82825 8.60699 8.08021C10.8861 8.20834 12.9314 8.9949 14.399 10.2208C15.8693 11.4491 16.7849 13.1482 16.6781 15.0476C16.4645 18.8485 12.4685 21.5042 7.9436 21.0573C3.30642 20.5993 -4.95437e-05 17.8417 -4.95768e-05 14.079L-4.95843e-05 14.0576ZM8.01866 20.2973C12.2757 20.7178 15.7348 18.223 15.9157 15.0047C16.0966 11.7864 12.8351 9.08277 8.56412 8.84265C4.29311 8.60254 0.944531 10.8607 0.763597 14.079C0.763597 17.2972 3.60003 19.8609 8.01866 20.2973Z" fill="black"/>
<path fill-rule="evenodd" clip-rule="evenodd" d="M8.0221 17.7602C10.9305 18.0464 13.2927 16.3579 13.4152 14.1783C13.5378 11.9987 11.3088 10.1665 8.39094 10.0025C5.47311 9.83843 3.18626 11.3667 3.06372 13.5463C3.06479 15.7259 5.00336 17.4632 8.0221 17.7602ZM8.00581 15.5499C9.73472 15.7191 11.1382 14.7293 11.2101 13.4504C11.282 12.1715 9.95621 11.0954 8.22172 10.9979C6.48722 10.9004 5.12853 11.7962 5.05663 13.0751C5.0582 14.3541 6.21127 15.3743 8.00581 15.5499Z" fill="black"/>
<path d="M9.56049 13.0081C9.45639 13.7382 8.65669 14.2447 7.74289 14.0726C6.79441 13.8939 6.23161 13.259 6.29651 12.5257C6.40061 11.7956 7.17161 11.3411 8.09206 11.4723C9.01252 11.6036 9.66459 12.2781 9.56049 13.0081Z" fill="#110111"/>
<path fill-rule="evenodd" clip-rule="evenodd" d="M6.884 2.18463C6.7958 1.68091 6.33426 1.34743 5.85312 1.43978C5.37199 1.53213 5.05346 2.01533 5.14167 2.51905L5.19153 2.8038C5.13727 2.81877 5.08418 2.83492 5.03233 2.85234C4.47737 3.03879 4.2544 3.64737 4.31138 4.23004C4.44476 5.59392 4.7853 6.79186 5.286 7.91757C5.38575 8.14183 5.60845 8.2863 5.85385 8.28203C5.95339 8.2803 6.05181 8.27696 6.14911 8.27208L6.86094 12.3371C6.94915 12.8408 7.41069 13.1743 7.89183 13.0819C8.37296 12.9896 8.69149 12.5064 8.60328 12.0027L7.90206 7.99829C10.6065 7.26719 12.1018 5.31335 12.3271 4.31536C12.4694 3.68515 12.7632 2.17116 11.3996 2.44389C10.7081 2.80161 9.51606 2.74226 8.27938 2.68069C7.83922 2.65877 7.3934 2.63657 6.96249 2.6328L6.884 2.18463Z" fill="#EE3040"/>
<path fill-rule="evenodd" clip-rule="evenodd" d="M11.3999 2.44363C12.7636 2.17091 12.4697 3.6849 12.3274 4.31511C12.1021 5.3131 10.6068 7.26694 7.90241 7.99804L8.60363 12.0024C8.69184 12.5061 8.37331 12.9893 7.89218 13.0817C7.41105 13.174 6.94951 12.8406 6.8613 12.3368L6.14946 8.27182C6.05216 8.27671 5.95374 8.28005 5.85421 8.28178C5.6088 8.28605 5.3861 8.14157 5.28635 7.91732C4.78565 6.79161 4.44512 5.59367 4.31173 4.22979C4.25475 3.64712 4.47773 3.03854 5.03269 2.85209C5.08453 2.83467 5.13763 2.81851 5.19189 2.80354L5.14203 2.5188C5.05382 2.01508 5.37235 1.53188 5.85348 1.43953C6.33461 1.34718 6.79615 1.68066 6.88436 2.18438L6.96284 2.63255C7.39375 2.63632 7.83956 2.65852 8.27972 2.68043L8.27973 2.68043C9.51641 2.74201 10.7085 2.80136 11.3999 2.44363ZM7.42279 2.09683L7.42164 2.09029C7.28481 1.30891 6.553 0.749844 5.75066 0.903844C5.00969 1.04606 4.53596 1.7349 4.58568 2.45626C3.90513 2.8409 3.70749 3.65528 3.76886 4.28288C3.90829 5.70856 4.265 6.96323 4.78797 8.13899C4.95177 8.50725 5.29428 8.76435 5.69121 8.81725L6.32401 12.4309C6.46084 13.2123 7.19266 13.7714 7.995 13.6174C8.78948 13.4649 9.27674 12.684 9.14092 11.9083L8.52303 8.37983C9.74248 7.97028 10.7108 7.32764 11.4207 6.6517C12.2071 5.90294 12.7151 5.07498 12.8595 4.43525C12.9275 4.13431 13.0676 3.49067 12.9646 2.94042C12.9107 2.6525 12.7761 2.31178 12.453 2.08556C12.1262 1.85667 11.7192 1.82352 11.293 1.90876L11.2176 1.92384L11.1493 1.95916C10.9132 2.08131 10.5414 2.15289 10.0219 2.17427C9.51246 2.19523 8.93164 2.16676 8.30686 2.13565L8.30113 2.13536C8.01349 2.12104 7.71767 2.10631 7.42279 2.09683Z" fill="black"/>
<path fill-rule="evenodd" clip-rule="evenodd" d="M5.85308 1.43978C6.33421 1.34743 6.79575 1.68091 6.88396 2.18463L8.60323 12.0027C8.69144 12.5064 8.37291 12.9896 7.89178 13.0819C7.41065 13.1743 6.94911 12.8408 6.8609 12.3371L5.14163 2.51905C5.05342 2.01533 5.37195 1.53213 5.85308 1.43978Z" fill="#963F3B"/>
<path d="M5.286 7.91735C4.7853 6.79164 4.44476 5.5937 4.31138 4.22982C4.2544 3.64715 4.47737 3.03857 5.03233 2.85212C6.80856 2.25535 10.0531 3.14026 11.3996 2.44367C12.7632 2.17094 12.4694 3.68493 12.3271 4.31514C12.0501 5.54175 9.85479 8.2123 5.85385 8.28181C5.60845 8.28608 5.38575 8.14161 5.286 7.91735Z" fill="#519EFE"/>
</svg>
