<svg width="993" height="571" viewBox="0 0 993 571" fill="none" preserveAspectRatio="none" xmlns="http://www.w3.org/2000/svg">
<g clip-path="url(#clip0_orange)">
<path d="M36.4359 71.6574C39.9831 31.11 73.9281 0 114.623 0H913.962C960.009 0 996.168 39.463 992.15 85.3428L956.022 498.345C952.475 538.892 918.529 570.003 877.834 570.003H78.4921C32.4456 570.003 -3.70904 530.54 0.304683 484.66L36.4359 71.6574Z" fill="#D26A2A"/>
<mask id="mask0_orange" style="mask-type:alpha" maskUnits="userSpaceOnUse" x="0" y="0" width="993" height="571">
<path d="M36.4359 71.6574C39.9831 31.11 73.9281 0 114.623 0H913.962C960.009 0 996.168 39.463 992.15 85.3428L956.022 498.345C952.475 538.892 918.529 570.003 877.834 570.003H78.4921C32.4456 570.003 -3.70904 530.54 0.304683 484.66L36.4359 71.6574Z" fill="#D26A2A"/>
</mask>
<g mask="url(#mask0_orange)">
<path d="M1028.68 -40.3633H-25.097V296.635H1028.68V-40.3633Z" fill="#FFA85C"/>
</g>
</g>
<defs>
<clipPath id="clip0_orange">
<rect width="993" height="571" fill="white"/>
</clipPath>
</defs>
</svg>
