<svg width="10337" height="571" viewBox="0 0 10337 571" fill="none" preserveAspectRatio="none" xmlns="http://www.w3.org/2000/svg">
<g clip-path="url(#clip0_36_597)">
<path d="M36.7689 71.6574C40.3164 31.11 74.2618 0 114.957 0H914.301C960.349 0 996.499 39.463 992.489 85.3428L956.354 498.345C952.806 538.892 918.861 570.003 878.166 570.003H78.8218C32.7818 570.003 -3.37685 530.54 0.633797 484.66L36.7689 71.6574Z" fill="#02103F"/>
<mask id="mask0_36_597" style="mask-type:alpha" maskUnits="userSpaceOnUse" x="0" y="0" width="993" height="571">
<path d="M36.7689 71.6574C40.3164 31.11 74.2618 0 114.957 0H914.301C960.349 0 996.499 39.463 992.489 85.3428L956.354 498.345C952.806 538.892 918.861 570.003 878.166 570.003H78.8218C32.7818 570.003 -3.37685 530.54 0.633797 484.66L36.7689 71.6574Z" fill="#EA3BC6"/>
</mask>
<g mask="url(#mask0_36_597)">
<path d="M1029 -40.3633H-24.7722V296.635H1029V-40.3633Z" fill="#023056"/>
</g>
<path d="M1074.95 71.6574C1078.49 31.11 1112.44 0 1153.13 0H1952.48C1998.53 0 2034.68 39.463 2030.67 85.3428L1994.54 498.345C1990.99 538.892 1957.05 570.003 1916.35 570.003H1117.01C1070.96 570.003 1034.8 530.54 1038.82 484.66L1074.95 71.6574Z" fill="#02103F"/>
<mask id="mask1_36_597" style="mask-type:alpha" maskUnits="userSpaceOnUse" x="1038" y="0" width="993" height="571">
<path d="M1074.95 71.6574C1078.49 31.11 1112.44 0 1153.13 0H1952.48C1998.53 0 2034.68 39.463 2030.67 85.3428L1994.54 498.345C1990.99 538.892 1957.05 570.003 1916.35 570.003H1117.01C1070.96 570.003 1034.8 530.54 1038.82 484.66L1074.95 71.6574Z" fill="#EA3BC6"/>
</mask>
<g mask="url(#mask1_36_597)">
<path d="M2067.18 -40.3633H1013.41V296.635H2067.18V-40.3633Z" fill="#023056"/>
</g>
<path d="M2113.12 71.6574C2116.66 31.11 2150.61 0 2191.3 0H2990.65C3036.7 0 3072.85 39.463 3068.84 85.3428L3032.71 498.345C3029.16 538.892 2995.22 570.003 2954.52 570.003H2155.18C2109.13 570.003 2072.98 530.54 2076.99 484.66L2113.12 71.6574Z" fill="#02103F"/>
<mask id="mask2_36_597" style="mask-type:alpha" maskUnits="userSpaceOnUse" x="2076" y="0" width="994" height="571">
<path d="M2113.12 71.6574C2116.66 31.11 2150.61 0 2191.3 0H2990.65C3036.7 0 3072.85 39.463 3068.84 85.3428L3032.71 498.345C3029.16 538.892 2995.22 570.003 2954.52 570.003H2155.18C2109.13 570.003 2072.98 530.54 2076.99 484.66L2113.12 71.6574Z" fill="#EA3BC6"/>
</mask>
<g mask="url(#mask2_36_597)">
<path d="M3105.36 -40.3633H2051.59V296.635H3105.36V-40.3633Z" fill="#023056"/>
</g>
<path d="M3151.3 71.6574C3154.85 31.11 3188.79 0 3229.49 0H4028.83C4074.87 0 4111.03 39.463 4107.02 85.3428L4070.89 498.345C4067.34 538.892 4033.39 570.003 3992.7 570.003H3193.35C3147.31 570.003 3111.16 530.54 3115.17 484.66L3151.3 71.6574Z" fill="#02103F"/>
<mask id="mask3_36_597" style="mask-type:alpha" maskUnits="userSpaceOnUse" x="3114" y="0" width="994" height="571">
<path d="M3151.3 71.6574C3154.85 31.11 3188.79 0 3229.49 0H4028.83C4074.87 0 4111.03 39.463 4107.02 85.3428L4070.89 498.345C4067.34 538.892 4033.39 570.003 3992.7 570.003H3193.35C3147.31 570.003 3111.16 530.54 3115.17 484.66L3151.3 71.6574Z" fill="#EA3BC6"/>
</mask>
<g mask="url(#mask3_36_597)">
<path d="M4143.54 -40.3633H3089.77V296.635H4143.54V-40.3633Z" fill="#023056"/>
</g>
<path d="M4189.47 71.6574C4193.02 31.11 4226.96 0 4267.66 0H5067C5113.05 0 5149.2 39.463 5145.19 85.3428L5109.06 498.345C5105.51 538.892 5071.56 570.003 5030.87 570.003H4231.53C4185.48 570.003 4149.32 530.54 4153.34 484.66L4189.47 71.6574Z" fill="#02103F"/>
<mask id="mask4_36_597" style="mask-type:alpha" maskUnits="userSpaceOnUse" x="4153" y="0" width="993" height="571">
<path d="M4189.47 71.6574C4193.02 31.11 4226.96 0 4267.66 0H5067C5113.05 0 5149.2 39.463 5145.19 85.3428L5109.06 498.345C5105.51 538.892 5071.56 570.003 5030.87 570.003H4231.53C4185.48 570.003 4149.32 530.54 4153.34 484.66L4189.47 71.6574Z" fill="#EA3BC6"/>
</mask>
<g mask="url(#mask4_36_597)">
<path d="M5181.7 -40.3633H4127.93V296.635H5181.7V-40.3633Z" fill="#023056"/>
</g>
<path d="M5227.65 71.6574C5231.2 31.11 5265.14 0 5305.84 0H6105.18C6151.23 0 6187.39 39.463 6183.37 85.3428L6147.24 498.345C6143.69 538.892 6109.75 570.003 6069.05 570.003H5269.71C5223.66 570.003 5187.51 530.54 5191.52 484.66L5227.65 71.6574Z" fill="#02103F"/>
<mask id="mask5_36_597" style="mask-type:alpha" maskUnits="userSpaceOnUse" x="5191" y="0" width="993" height="571">
<path d="M5227.65 71.6574C5231.2 31.11 5265.14 0 5305.84 0H6105.18C6151.23 0 6187.39 39.463 6183.37 85.3428L6147.24 498.345C6143.69 538.892 6109.75 570.003 6069.05 570.003H5269.71C5223.66 570.003 5187.51 530.54 5191.52 484.66L5227.65 71.6574Z" fill="#EA3BC6"/>
</mask>
<g mask="url(#mask5_36_597)">
<path d="M6219.88 -40.3633H5166.11V296.635H6219.88V-40.3633Z" fill="#023056"/>
</g>
<path d="M6265.83 71.6574C6269.37 31.11 6303.32 0 6344.01 0H7143.32C7189.39 0 7225.57 39.463 7221.57 85.3428L7185.39 498.345C7181.86 538.892 7147.95 570.003 7107.22 570.003H6307.88C6261.83 570.003 6225.68 530.54 6229.69 484.66L6265.83 71.6574Z" fill="#02103F"/>
<mask id="mask6_36_597" style="mask-type:alpha" maskUnits="userSpaceOnUse" x="6229" y="0" width="993" height="571">
<path d="M6265.83 71.6574C6269.37 31.11 6303.32 0 6344.01 0H7143.32C7189.39 0 7225.57 39.463 7221.57 85.3428L7185.39 498.345C7181.86 538.892 7147.95 570.003 7107.22 570.003H6307.88C6261.83 570.003 6225.68 530.54 6229.69 484.66L6265.83 71.6574Z" fill="#EA3BC6"/>
</mask>
<g mask="url(#mask6_36_597)">
<path d="M7258.07 -40.3633H6204.29V296.635H7258.07V-40.3633Z" fill="#023056"/>
</g>
<path d="M7303.98 71.6574C7307.51 31.11 7341.5 0 7382.15 0H8181.54C8227.61 0 8263.71 39.463 8259.71 85.3428L8223.6 498.345C8220.07 538.892 8186.09 570.003 8145.43 570.003H7346.05C7299.98 570.003 7263.87 530.54 7267.88 484.66L7303.98 71.6574Z" fill="#02103F"/>
<mask id="mask7_36_597" style="mask-type:alpha" maskUnits="userSpaceOnUse" x="7267" y="0" width="994" height="571">
<path d="M7303.98 71.6574C7307.51 31.11 7341.5 0 7382.15 0H8181.54C8227.61 0 8263.71 39.463 8259.71 85.3428L8223.6 498.345C8220.07 538.892 8186.09 570.003 8145.43 570.003H7346.05C7299.98 570.003 7263.87 530.54 7267.88 484.66L7303.98 71.6574Z" fill="#EA3BC6"/>
</mask>
<g mask="url(#mask7_36_597)">
<path d="M8296.22 -40.3633H7242.45V296.635H8296.22V-40.3633Z" fill="#023056"/>
</g>
<path d="M8342.2 71.6574C8345.73 31.11 8379.64 0 8420.37 0H9219.67C9265.75 0 9301.93 39.463 9297.92 85.3428L9261.74 498.345C9258.21 538.892 9224.3 570.003 9183.57 570.003H8384.27C8338.19 570.003 8302.01 530.54 8306.01 484.66L8342.2 71.6574Z" fill="#02103F"/>
<mask id="mask8_36_597" style="mask-type:alpha" maskUnits="userSpaceOnUse" x="8305" y="0" width="994" height="571">
<path d="M8342.2 71.6574C8345.73 31.11 8379.64 0 8420.37 0H9219.67C9265.75 0 9301.93 39.463 9297.92 85.3428L9261.74 498.345C9258.21 538.892 9224.3 570.003 9183.57 570.003H8384.27C8338.19 570.003 8302.01 530.54 8306.01 484.66L8342.2 71.6574Z" fill="#EA3BC6"/>
</mask>
<g mask="url(#mask8_36_597)">
<path d="M9334.44 -40.3633H8280.66V296.635H9334.44V-40.3633Z" fill="#023056"/>
</g>
<path d="M9380.34 71.6574C9383.87 31.11 9417.85 0 9458.51 0H10257.9C10303.9 0 10340.1 39.463 10336.1 85.3428L10300 498.345C10296.3 538.892 10262.4 570.003 10221.7 570.003H9422.4C9376.33 570.003 9340.23 530.54 9344.23 484.66L9380.34 71.6574Z" fill="#02103F"/>
<mask id="mask9_36_597" style="mask-type:alpha" maskUnits="userSpaceOnUse" x="9343" y="0" width="994" height="571">
<path d="M9380.34 71.6574C9383.87 31.11 9417.85 0 9458.51 0H10257.9C10303.9 0 10340.1 39.463 10336.1 85.3428L10300 498.345C10296.3 538.892 10262.4 570.003 10221.7 570.003H9422.4C9376.33 570.003 9340.23 530.54 9344.23 484.66L9380.34 71.6574Z" fill="#EA3BC6"/>
</mask>
<g mask="url(#mask9_36_597)">
<path d="M10372.6 -40.3633H9318.8V296.635H10372.6V-40.3633Z" fill="#023056"/>
</g>
</g>
<defs>
<clipPath id="clip0_36_597">
<rect width="10337" height="571" fill="white"/>
</clipPath>
</defs>
</svg>
