<svg width="2477" height="2996" viewBox="0 0 2477 2996" fill="none" xmlns="http://www.w3.org/2000/svg" xmlns:xlink="http://www.w3.org/1999/xlink">
<rect y="86" width="2477" height="2910" rx="218" fill="#4E4E4E"/>
<rect x="13" y="13.002" width="2451" height="2936" rx="231" fill="url(#paint0_linear_37_1460)"/>
<rect x="13" y="13.002" width="2451" height="2936" rx="231" fill="url(#pattern0_37_1460)" fill-opacity="0.2"/>
<rect x="13" y="13.002" width="2451" height="2936" rx="231" stroke="black" stroke-width="26"/>
<mask id="path-4-inside-1_37_1460" fill="white">
<path d="M26 244.002C26 123.604 123.602 26.002 244 26.002H2233C2353.4 26.002 2451 123.604 2451 244.002V2718C2451 2838.4 2353.4 2936 2233 2936H244C123.602 2936 26 2838.4 26 2718V244.002Z"/>
</mask>
<path d="M-3 242.002C-3 105.588 107.586 -4.99805 244 -4.99805H2233C2370.52 -4.99805 2482 106.483 2482 244.002H2420C2420 140.725 2336.28 57.002 2233 57.002H244C139.618 57.002 55 140.725 55 244.002L-3 242.002ZM2482 2746C2482 2883.52 2370.52 2995 2233 2995H244C107.586 2995 -3 2884.42 -3 2748L55 2718C55 2805.82 139.618 2877 244 2877H2233C2336.28 2877 2420 2805.82 2420 2718L2482 2746ZM244 2995C107.586 2995 -3 2884.42 -3 2748V242.002C-3 105.588 107.586 -4.99805 244 -4.99805V57.002C139.618 57.002 55 140.725 55 244.002V2718C55 2805.82 139.618 2877 244 2877V2995ZM2233 -4.99805C2370.52 -4.99805 2482 106.483 2482 244.002V2746C2482 2883.52 2370.52 2995 2233 2995V2877C2336.28 2877 2420 2805.82 2420 2718V244.002C2420 140.725 2336.28 57.002 2233 57.002V-4.99805Z" fill="url(#paint2_linear_37_1460)" mask="url(#path-4-inside-1_37_1460)"/>
<rect x="109" y="697.002" width="2259" height="1656" rx="157" fill="url(#paint3_linear_37_1460)" stroke="#3B0F99" stroke-width="16"/>
<rect x="215" y="822.002" width="2047" height="395" rx="76" fill="#160E4B"/>
<rect x="215" y="1826" width="2047" height="395" rx="76" fill="#160E49"/>
<rect x="215" y="1324" width="2047" height="395" rx="76" fill="#160E49"/>
<g filter="url(#filter0_d_37_1460)">
<path d="M611.451 1027.6C588.795 1063.22 568.453 1098.51 494.806 1138C446.79 1118.82 384.662 1093.65 357.748 1027.6C324.883 946.94 402.265 861.005 482.83 934.095C573.509 837.568 651.935 964.035 611.451 1027.6Z" fill="#08D404" stroke="black" stroke-width="9"/>
</g>
<g filter="url(#filter1_d_37_1460)">
<path d="M552.299 1023.95C540.488 1043.32 529.884 1062.52 491.49 1084C466.459 1073.57 434.07 1059.88 420.039 1023.95C402.906 980.077 443.247 933.334 485.247 973.09C532.52 920.586 573.404 989.375 552.299 1023.95Z" fill="white"/>
</g>
<path d="M381.896 1642.18L314.707 1590.15C313.441 1589.17 313.968 1587.15 315.55 1586.92L379.448 1577.35L342.634 1469.68C342.098 1468.11 343.778 1466.7 345.233 1467.5L432.873 1515.79L473.071 1393.25C473.58 1391.7 475.718 1391.56 476.433 1393.02L531.972 1507.22L614.159 1451.15C615.528 1450.22 617.332 1451.45 616.954 1453.07L590.697 1565.12L658.126 1563.21C659.739 1563.16 660.608 1565.08 659.508 1566.26L600.892 1629.13L528.164 1650.74H465.497L381.896 1642.18Z" fill="#ED302D" stroke="black" stroke-width="9"/>
<g filter="url(#filter2_d_37_1460)">
<path d="M421.19 1608.18L379.439 1582.56C378.653 1582.08 378.98 1581.09 379.963 1580.97L419.669 1576.26L396.793 1523.25C396.46 1522.47 397.504 1521.78 398.408 1522.18L452.866 1545.95L477.845 1485.62C478.161 1484.85 479.49 1484.78 479.934 1485.51L514.445 1541.73L565.515 1514.12C566.366 1513.66 567.487 1514.27 567.252 1515.07L550.936 1570.24L592.836 1569.3C593.838 1569.27 594.378 1570.22 593.694 1570.8L557.271 1601.76L502.788 1614L522.606 1586.43C523.034 1585.84 522.491 1585.09 521.624 1585.09H498.48L486.592 1561.09C486.219 1560.34 484.876 1560.33 484.493 1561.08L471.112 1587.3H454.93C454.038 1587.3 453.498 1588.08 453.979 1588.68L473.139 1612.4L421.19 1608.18Z" fill="white"/>
</g>
<path d="M485.5 2170C566.41 2170 632 2104.41 632 2023.5C632 1942.59 566.41 1877 485.5 1877C404.59 1877 339 1942.59 339 2023.5C339 2104.41 404.59 2170 485.5 2170Z" fill="#FCC427" stroke="black" stroke-width="9"/>
<g filter="url(#filter3_d_37_1460)">
<path d="M485.5 2121C539.9 2121 584 2077.35 584 2023.5C584 1969.65 539.9 1926 485.5 1926C431.1 1926 387 1969.65 387 2023.5C387 2077.35 431.1 2121 485.5 2121Z" fill="#D9D9D9"/>
<path d="M485.5 2121C539.9 2121 584 2077.35 584 2023.5C584 1969.65 539.9 1926 485.5 1926C431.1 1926 387 1969.65 387 2023.5C387 2077.35 431.1 2121 485.5 2121Z" stroke="black" stroke-width="9"/>
</g>
<path d="M485.759 2121.56C539.749 2121.56 583.517 2077.79 583.517 2023.78C583.517 1969.78 539.749 1926 485.759 1926C431.768 1926 388 1969.78 388 2023.78C388 2077.79 431.768 2121.56 485.759 2121.56Z" fill="#A4A4A4"/>
<path d="M453.566 1944.96C479.655 1934.09 508.882 1943.96 518.849 1966.99C525.853 1983.18 521.462 2001.55 509.18 2014.82C525.89 2016.51 540.622 2025.93 547.135 2040.97C557.102 2064 544.032 2091.48 517.943 2102.34C491.856 2113.2 462.628 2103.33 452.662 2080.31C445.657 2064.12 450.039 2045.74 462.319 2032.47C445.617 2030.78 430.886 2021.36 424.374 2006.33C414.408 1983.29 427.478 1955.82 453.566 1944.96Z" fill="#E3E3E3"/>
<path d="M485.758 2088.52C521.506 2088.52 550.486 2059.54 550.486 2023.78C550.486 1988.03 521.506 1959.04 485.758 1959.04C450.011 1959.04 421.031 1988.03 421.031 2023.78C421.031 2059.54 450.011 2088.52 485.758 2088.52Z" fill="#747474"/>
<path d="M511.238 2056.15H460.278C459.03 2056.15 458.018 2057.17 458.018 2058.42V2072.39C458.018 2073.64 459.03 2074.65 460.278 2074.65H511.238C512.487 2074.65 513.499 2073.64 513.499 2072.39V2058.42C513.499 2057.17 512.487 2056.15 511.238 2056.15Z" fill="#EDECEB"/>
<path d="M485.759 1972.91C513.846 1972.91 541.24 1998.24 541.24 2023.78C541.24 2049.32 531.991 2065.4 485.759 2065.4C439.525 2065.4 430.277 2049.32 430.277 2023.78C430.277 1998.24 457.671 1972.91 485.759 1972.91ZM486.741 2041.2C486.306 2040.44 485.212 2040.44 484.776 2041.2L478.728 2051.69C478.297 2052.44 478.842 2053.37 479.71 2053.37H491.807C492.675 2053.37 493.219 2052.44 492.789 2051.69L486.741 2041.2ZM460.33 2019.16C451.394 2019.16 444.152 2026.4 444.151 2035.33C444.151 2044.27 451.393 2051.52 460.33 2051.52C469.266 2051.52 476.509 2044.27 476.509 2035.33C476.508 2026.4 469.265 2019.16 460.33 2019.16ZM511.187 2019.16C502.251 2019.16 495.009 2026.4 495.008 2035.33C495.008 2044.27 502.25 2051.52 511.187 2051.52C520.123 2051.52 527.367 2044.27 527.367 2035.33C527.365 2026.4 520.122 2019.16 511.187 2019.16Z" fill="#EDECEB"/>
<path d="M468.647 2006.26C477.169 2000.63 481.079 1991.52 477.38 1985.92C473.681 1980.32 463.774 1980.35 455.252 1985.98C446.73 1991.61 442.82 2000.71 446.519 2006.32C450.218 2011.92 460.125 2011.89 468.647 2006.26Z" fill="white"/>
<defs>
<filter id="filter0_d_37_1460" x="344.902" y="894.502" width="281.983" height="249.957" filterUnits="userSpaceOnUse" color-interpolation-filters="sRGB">
<feFlood flood-opacity="0" result="BackgroundImageFix"/>
<feColorMatrix in="SourceAlpha" type="matrix" values="0 0 0 0 0 0 0 0 0 0 0 0 0 0 0 0 0 0 127 0" result="hardAlpha"/>
<feOffset dx="-0.6" dy="1.5"/>
<feComposite in2="hardAlpha" operator="out"/>
<feColorMatrix type="matrix" values="0 0 0 0 0 0 0 0 0 0 0 0 0 0 0 0 0 0 1 0"/>
<feBlend mode="normal" in2="BackgroundImageFix" result="effect1_dropShadow_37_1460"/>
<feBlend mode="normal" in="SourceGraphic" in2="effect1_dropShadow_37_1460" result="shape"/>
</filter>
<filter id="filter1_d_37_1460" x="412" y="954.002" width="150" height="148" filterUnits="userSpaceOnUse" color-interpolation-filters="sRGB">
<feFlood flood-opacity="0" result="BackgroundImageFix"/>
<feColorMatrix in="SourceAlpha" type="matrix" values="0 0 0 0 0 0 0 0 0 0 0 0 0 0 0 0 0 0 127 0" result="hardAlpha"/>
<feOffset dy="14"/>
<feGaussianBlur stdDeviation="2"/>
<feComposite in2="hardAlpha" operator="out"/>
<feColorMatrix type="matrix" values="0 0 0 0 0 0 0 0 0 0 0 0 0 0 0 0 0 0 1 0"/>
<feBlend mode="normal" in2="BackgroundImageFix" result="effect1_dropShadow_37_1460"/>
<feBlend mode="normal" in="SourceGraphic" in2="effect1_dropShadow_37_1460" result="shape"/>
</filter>
<filter id="filter2_d_37_1460" x="375" y="1485" width="223" height="150" filterUnits="userSpaceOnUse" color-interpolation-filters="sRGB">
<feFlood flood-opacity="0" result="BackgroundImageFix"/>
<feColorMatrix in="SourceAlpha" type="matrix" values="0 0 0 0 0 0 0 0 0 0 0 0 0 0 0 0 0 0 127 0" result="hardAlpha"/>
<feOffset dy="17"/>
<feGaussianBlur stdDeviation="2"/>
<feComposite in2="hardAlpha" operator="out"/>
<feColorMatrix type="matrix" values="0 0 0 0 0 0 0 0 0 0 0 0 0 0 0 0 0 0 1 0"/>
<feBlend mode="normal" in2="BackgroundImageFix" result="effect1_dropShadow_37_1460"/>
<feBlend mode="normal" in="SourceGraphic" in2="effect1_dropShadow_37_1460" result="shape"/>
</filter>
<filter id="filter3_d_37_1460" x="378.5" y="1921.5" width="214" height="220" filterUnits="userSpaceOnUse" color-interpolation-filters="sRGB">
<feFlood flood-opacity="0" result="BackgroundImageFix"/>
<feColorMatrix in="SourceAlpha" type="matrix" values="0 0 0 0 0 0 0 0 0 0 0 0 0 0 0 0 0 0 127 0" result="hardAlpha"/>
<feOffset dy="12"/>
<feGaussianBlur stdDeviation="2"/>
<feComposite in2="hardAlpha" operator="out"/>
<feColorMatrix type="matrix" values="0 0 0 0 0 0 0 0 0 0 0 0 0 0 0 0 0 0 0.8 0"/>
<feBlend mode="normal" in2="BackgroundImageFix" result="effect1_dropShadow_37_1460"/>
<feBlend mode="normal" in="SourceGraphic" in2="effect1_dropShadow_37_1460" result="shape"/>
</filter>
<linearGradient id="paint0_linear_37_1460" x1="1238.5" y1="26.002" x2="1238.5" y2="2936" gradientUnits="userSpaceOnUse">
<stop stop-color="#741FD9"/>
<stop offset="1" stop-color="#5B26BE"/>
</linearGradient>
<linearGradient id="paint2_linear_37_1460" x1="1238.5" y1="26.002" x2="1238.5" y2="2936" gradientUnits="userSpaceOnUse">
<stop stop-color="#C05BFF"/>
<stop offset="1" stop-color="#411BB2"/>
</linearGradient>
<linearGradient id="paint3_linear_37_1460" x1="1238.5" y1="705.002" x2="1238.5" y2="2345" gradientUnits="userSpaceOnUse">
<stop stop-color="#A648F9"/>
<stop offset="1" stop-color="#8337CA"/>
</linearGradient>
<pattern id="pattern0_37_1460" patternUnits="userSpaceOnUse" patternTransform="matrix(1375.89 0 0 708.149 26 26.002)" preserveAspectRatio="none" viewBox="0 0 1217.6 626.68" width="1" height="1">
<use xlink:href="#pattern0_37_1460_inner" transform="translate(0 -626.68)"/>
<use xlink:href="#pattern0_37_1460_inner" transform="translate(608.802 -313.34)"/>
<g id="pattern0_37_1460_inner">
<path d="M350.218 111.035C111.97 135.083 281.485 209.609 431.706 272.788C177.12 219.275 362.083 368.928 454.33 467.672C357.276 405.978 238.5 347.294 134.27 324.845C369.095 307.81 161.04 186.499 0 152.757C185.74 151.312 164.326 140.66 8.96 0C140.644 75.394 224.793 97.65 350.22 111.038L350.218 111.035Z" fill="url(#paint1_linear_37_1460)"/>
</g>
<use xlink:href="#pattern0_37_1460_inner" transform="translate(608.802 313.34)"/>
</pattern><linearGradient id="paint1_linear_37_1460" x1="227.165" y1="0" x2="227.165" y2="467.672" gradientUnits="userSpaceOnUse">
<stop stop-color="white"/>
<stop offset="1" stop-color="white" stop-opacity="0.2"/>
</linearGradient>
</defs>
</svg>
