<svg width="189" height="171" viewBox="0 0 189 171" fill="none" xmlns="http://www.w3.org/2000/svg">
<path d="M187.908 35.7246V159.986C187.908 162.057 186.229 163.736 184.158 163.736H15.5625C13.4916 163.736 11.8128 162.057 11.8125 159.986V35.7246H187.908Z" fill="#A148CA" fill-opacity="0.5" stroke="#9A1ACD" stroke-width="1.5"/>
<path d="M187.908 35.5601V8.10498C187.908 6.03394 186.229 4.35502 184.158 4.35498H14.2754C12.2043 4.35498 10.5254 6.03391 10.5254 8.10498V35.5601H187.908Z" fill="#9A1ACD" stroke="#9A1ACD" stroke-width="1.5"/>
<path d="M181.556 47.4893H18V72H181.556V47.4893Z" fill="#00112D" fill-opacity="0.6"/>
<path d="M18.5 47.1543H44.9479L40.9711 71.5645H18.5V47.1543Z" fill="black"/>
<path d="M46.9482 45.5996C47.0688 45.5996 47.1828 45.6544 47.2588 45.748C47.3347 45.8418 47.3649 45.965 47.3398 46.083L42.3848 69.4619C42.3456 69.6468 42.1821 69.7793 41.9932 69.7793H20.4248C20.2041 69.7793 20.0247 69.6006 20.0244 69.3799V46C20.0244 45.7791 20.2039 45.5996 20.4248 45.5996H46.9482Z" fill="#13AA13" stroke="black" stroke-width="0.8" stroke-linejoin="round"/>
<mask id="mask0_44_1295" style="mask-type:alpha" maskUnits="userSpaceOnUse" x="20" y="46" width="27" height="24">
<path d="M20.4248 46H46.9482L41.9936 69.3794H20.4248V46Z" fill="#D9D9D9"/>
</mask>
<g mask="url(#mask0_44_1295)">
<path d="M18.4727 43.334H47.8604V53.1028L18.4727 62.1698V43.334Z" fill="#00CC00"/>
</g>
<g filter="url(#filter0_d_44_1295)">
<path d="M40.3939 57.6942C39.0899 59.5894 37.9191 61.4671 33.6802 63.5687C30.9166 62.5478 27.3407 61.2088 25.7916 57.6942C23.9 53.4023 28.3539 48.8297 32.9909 52.7188C38.2101 47.5826 42.724 54.3119 40.3939 57.6942Z" fill="white"/>
</g>
<path d="M181.556 77.7892H18V102.3H181.556V77.7892Z" fill="#00112D" fill-opacity="0.6"/>
<path d="M18.5005 77.4538H44.9484L40.9716 101.864H18.5005V77.4538Z" fill="black"/>
<path d="M46.9487 75.9001C47.0693 75.9001 47.1833 75.9549 47.2593 76.0485C47.3352 76.1423 47.3653 76.2655 47.3403 76.3835L42.3853 99.7624C42.3461 99.9472 42.1826 100.08 41.9937 100.08H20.4253C20.2045 100.08 20.0252 99.901 20.0249 99.6804V76.3005C20.0249 76.0796 20.2044 75.9001 20.4253 75.9001H46.9487Z" fill="#F4321E" stroke="black" stroke-width="0.8" stroke-linejoin="round"/>
<mask id="mask1_44_1295" style="mask-type:alpha" maskUnits="userSpaceOnUse" x="20" y="76" width="27" height="24">
<path d="M20.4253 76.3005H46.9487L41.994 99.6799H20.4253V76.3005Z" fill="#D9D9D9"/>
</mask>
<g mask="url(#mask1_44_1295)">
<path d="M18.4731 73.6349H47.8609V83.4038L18.4731 92.4707V73.6349Z" fill="#FC3F7E"/>
</g>
<path d="M26.6656 94.8071L23.0879 92.036C23.0184 91.9821 23.0473 91.8711 23.1344 91.858L26.5351 91.3489L24.5743 85.6126C24.5448 85.5261 24.6372 85.4485 24.7172 85.4927L29.3842 88.0647L31.6027 81.3005L34.6693 87.6078L39.2584 84.4761L37.8012 90.6963L41.39 90.5944C41.4788 90.5919 41.5265 90.6976 41.466 90.7625L38.3449 94.111L33.904 95.371C33.8179 95.3954 33.7455 95.3031 33.7898 95.2253L35.4523 92.3058H33.3673C33.3262 92.3058 33.2892 92.2806 33.2742 92.2423L32.2816 89.7121C32.2486 89.6279 32.1297 89.6273 32.0958 89.7111L30.9755 92.4825C30.9602 92.5202 30.9235 92.545 30.8827 92.545H29.3842L31.0125 95.0891C31.0576 95.1596 31.0013 95.2511 30.9181 95.2425L26.6656 94.8071Z" fill="#343434"/>
<path d="M26.9217 93.4786L23.2266 90.6165C23.157 90.5626 23.186 90.4516 23.273 90.4386L26.7871 89.9124L24.7625 83.9895C24.733 83.903 24.8254 83.8255 24.9054 83.8696L29.7252 86.5258L31.9359 79.7851C31.9639 79.6998 32.0815 79.6918 32.1208 79.7726L35.1752 86.0546L39.6951 82.9701C39.7704 82.9187 39.8696 82.9867 39.8488 83.0755L38.4048 89.2396L42.1131 89.1342C42.2018 89.1317 42.2496 89.2374 42.1891 89.3024L38.9655 92.7608L34.1435 94.1289L35.8975 91.0487C35.9354 90.9821 35.8873 90.8992 35.8106 90.8992H33.7622L32.7101 88.2173C32.6771 88.1331 32.5582 88.1325 32.5243 88.2163L31.34 91.1459H29.9079C29.8289 91.1459 29.7811 91.2332 29.8237 91.2998L31.5194 93.9494L26.9217 93.4786Z" fill="white"/>
<path d="M181.556 108.089H18V132.6H181.556V108.089Z" fill="#00112D" fill-opacity="0.6"/>
<path d="M18.5 107.254H44.9479L40.9711 131.664H18.5V107.254Z" fill="black"/>
<path d="M47.8955 105.7C48.0165 105.7 48.1311 105.755 48.207 105.85C48.283 105.944 48.3121 106.068 48.2861 106.186L43.1543 129.565C43.114 129.749 42.9515 129.88 42.7637 129.88H20.4248C20.2041 129.88 20.0247 129.701 20.0244 129.48V106.1C20.0244 105.88 20.2039 105.7 20.4248 105.7H47.8955Z" fill="#F4A41B" stroke="black" stroke-width="0.8" stroke-linejoin="round"/>
<mask id="mask2_44_1295" style="mask-type:alpha" maskUnits="userSpaceOnUse" x="20" y="106" width="28" height="24">
<path d="M20.4248 106.1H47.8955L42.7639 129.48H20.4248V106.1Z" fill="#D9D9D9"/>
</mask>
<g mask="url(#mask2_44_1295)">
<path d="M18.4727 103.435H47.8604V113.204L18.4727 122.271V103.435Z" fill="#FFC11E"/>
</g>
<circle cx="32" cy="117" r="8.65" fill="#A4A4A4" stroke="black" stroke-width="0.7"/>
<path d="M29.1515 110.027C31.4599 109.066 34.046 109.939 34.9279 111.976C35.5477 113.408 35.1591 115.033 34.0724 116.207C35.5509 116.357 36.8545 117.19 37.4308 118.521C38.3127 120.558 37.1562 122.989 34.8478 123.95C32.5395 124.91 29.9533 124.037 29.0715 122.001C28.4517 120.569 28.8394 118.943 29.926 117.769C28.4481 117.619 27.1447 116.786 26.5685 115.456C25.6867 113.418 26.8431 110.988 29.1515 110.027Z" fill="#E3E3E3"/>
<circle cx="32" cy="117" r="5.72727" fill="#747474"/>
<rect x="29.5454" y="119.864" width="4.90909" height="1.63636" rx="0.2" fill="#EDECEB"/>
<path d="M32 112.5C34.4853 112.5 36.9092 114.741 36.9092 117C36.9092 119.259 36.0908 120.682 32 120.682C27.9091 120.682 27.0908 119.259 27.0908 117C27.0908 114.741 29.5147 112.5 32 112.5ZM32.0869 118.541C32.0484 118.474 31.9516 118.474 31.9131 118.541L31.3779 119.469C31.3398 119.535 31.388 119.618 31.4648 119.618H32.5352C32.612 119.618 32.6601 119.535 32.6221 119.469L32.0869 118.541ZM29.75 116.591C28.9593 116.591 28.3185 117.232 28.3184 118.022C28.3184 118.813 28.9592 119.454 29.75 119.454C30.5407 119.454 31.1816 118.813 31.1816 118.022C31.1815 117.232 30.5406 116.591 29.75 116.591ZM34.25 116.591C33.4593 116.591 32.8185 117.232 32.8184 118.022C32.8184 118.813 33.4592 119.454 34.25 119.454C35.0407 119.454 35.6816 118.813 35.6816 118.022C35.6815 117.232 35.0406 116.591 34.25 116.591Z" fill="#EDECEB"/>
<ellipse cx="29.8933" cy="114.553" rx="1.63636" ry="1.0752" transform="rotate(-33.4483 29.8933 114.553)" fill="white"/>
<defs>
<filter id="filter0_d_44_1295" x="24.7457" y="50.8515" width="16.2775" height="14.2172" filterUnits="userSpaceOnUse" color-interpolation-filters="sRGB">
<feFlood flood-opacity="0" result="BackgroundImageFix"/>
<feColorMatrix in="SourceAlpha" type="matrix" values="0 0 0 0 0 0 0 0 0 0 0 0 0 0 0 0 0 0 127 0" result="hardAlpha"/>
<feOffset dx="-0.6" dy="1.5"/>
<feComposite in2="hardAlpha" operator="out"/>
<feColorMatrix type="matrix" values="0 0 0 0 0 0 0 0 0 0 0 0 0 0 0 0 0 0 1 0"/>
<feBlend mode="normal" in2="BackgroundImageFix" result="effect1_dropShadow_44_1295"/>
<feBlend mode="normal" in="SourceGraphic" in2="effect1_dropShadow_44_1295" result="shape"/>
</filter>
</defs>
</svg>
