<svg width="189" height="171" viewBox="0 0 189 171" fill="none" xmlns="http://www.w3.org/2000/svg">
<path d="M187.908 35.7246V159.986C187.908 162.057 186.229 163.736 184.158 163.736H15.5625C13.4916 163.736 11.8128 162.057 11.8125 159.986V35.7246H187.908Z" fill="#8CE30B" fill-opacity="0.5" stroke="#65BA09" stroke-width="1.5"/>
<path d="M187.908 35.5601V8.10498C187.908 6.03394 186.229 4.35502 184.158 4.35498H14.2754C12.2043 4.35498 10.5254 6.03391 10.5254 8.10498V35.5601H187.908Z" fill="#65BA09" stroke="#65BA09" stroke-width="1.5"/>
<path d="M181.556 45.4893H18V70H181.556V45.4893Z" fill="#00112D" fill-opacity="0.6"/>
<path d="M18.5 45.1543H44.9479L40.9711 69.5645H18.5V45.1543Z" fill="black"/>
<path d="M46.9482 43.5996C47.0688 43.5996 47.1828 43.6544 47.2588 43.748C47.3347 43.8418 47.3649 43.965 47.3398 44.083L42.3848 67.4619C42.3456 67.6468 42.1821 67.7793 41.9932 67.7793H20.4248C20.2041 67.7793 20.0247 67.6006 20.0244 67.3799V44C20.0244 43.7791 20.2039 43.5996 20.4248 43.5996H46.9482Z" fill="#13AA13" stroke="black" stroke-width="0.8" stroke-linejoin="round"/>
<mask id="mask0_44_1171" style="mask-type:alpha" maskUnits="userSpaceOnUse" x="20" y="44" width="27" height="24">
<path d="M20.4248 44H46.9482L41.9936 67.3794H20.4248V44Z" fill="#D9D9D9"/>
</mask>
<g mask="url(#mask0_44_1171)">
<path d="M18.4727 41.334H47.8604V51.1028L18.4727 60.1698V41.334Z" fill="#00CC00"/>
</g>
<g filter="url(#filter0_d_44_1171)">
<path d="M40.3939 55.6942C39.0899 57.5894 37.9191 59.4671 33.6802 61.5687C30.9166 60.5478 27.3407 59.2088 25.7916 55.6942C23.9 51.4023 28.3539 46.8297 32.9909 50.7188C38.2101 45.5826 42.724 52.3119 40.3939 55.6942Z" fill="white"/>
</g>
<path d="M181.556 75.7892H18V100.3H181.556V75.7892Z" fill="#00112D" fill-opacity="0.6"/>
<path d="M18.5005 75.4538H44.9484L40.9716 99.864H18.5005V75.4538Z" fill="black"/>
<path d="M46.9487 73.9001C47.0693 73.9001 47.1833 73.9549 47.2593 74.0485C47.3352 74.1423 47.3653 74.2655 47.3403 74.3835L42.3853 97.7624C42.3461 97.9472 42.1826 98.0798 41.9937 98.0798H20.4253C20.2045 98.0798 20.0252 97.901 20.0249 97.6804V74.3005C20.0249 74.0796 20.2044 73.9001 20.4253 73.9001H46.9487Z" fill="#F4321E" stroke="black" stroke-width="0.8" stroke-linejoin="round"/>
<mask id="mask1_44_1171" style="mask-type:alpha" maskUnits="userSpaceOnUse" x="20" y="74" width="27" height="24">
<path d="M20.4253 74.3005H46.9487L41.994 97.6799H20.4253V74.3005Z" fill="#D9D9D9"/>
</mask>
<g mask="url(#mask1_44_1171)">
<path d="M18.4731 71.6349H47.8609V81.4038L18.4731 90.4707V71.6349Z" fill="#FC3F7E"/>
</g>
<path d="M26.6656 92.8071L23.0879 90.036C23.0184 89.9821 23.0473 89.8711 23.1344 89.858L26.5351 89.3489L24.5743 83.6126C24.5448 83.5261 24.6372 83.4485 24.7172 83.4927L29.3842 86.0647L31.6027 79.3005L34.6693 85.6078L39.2584 82.4761L37.8012 88.6963L41.39 88.5944C41.4788 88.5919 41.5265 88.6976 41.466 88.7625L38.3449 92.111L33.904 93.371C33.8179 93.3954 33.7455 93.3031 33.7898 93.2253L35.4523 90.3058H33.3673C33.3262 90.3058 33.2892 90.2806 33.2742 90.2423L32.2816 87.7121C32.2486 87.6279 32.1297 87.6273 32.0958 87.7111L30.9755 90.4825C30.9602 90.5202 30.9235 90.545 30.8827 90.545H29.3842L31.0125 93.0891C31.0576 93.1596 31.0013 93.2511 30.9181 93.2425L26.6656 92.8071Z" fill="#343434"/>
<path d="M26.9217 91.4786L23.2266 88.6165C23.157 88.5626 23.186 88.4516 23.273 88.4386L26.7871 87.9124L24.7625 81.9895C24.733 81.903 24.8254 81.8255 24.9054 81.8696L29.7252 84.5258L31.9359 77.7851C31.9639 77.6998 32.0815 77.6918 32.1208 77.7726L35.1752 84.0546L39.6951 80.9701C39.7704 80.9187 39.8696 80.9867 39.8488 81.0755L38.4048 87.2396L42.1131 87.1342C42.2018 87.1317 42.2496 87.2374 42.1891 87.3024L38.9655 90.7608L34.1435 92.1289L35.8975 89.0487C35.9354 88.9821 35.8873 88.8992 35.8106 88.8992H33.7622L32.7101 86.2173C32.6771 86.1331 32.5582 86.1325 32.5243 86.2163L31.34 89.1459H29.9079C29.8289 89.1459 29.7811 89.2332 29.8237 89.2998L31.5194 91.9494L26.9217 91.4786Z" fill="white"/>
<path d="M181.556 106.089H18V130.6H181.556V106.089Z" fill="#00112D" fill-opacity="0.6"/>
<path d="M18.5 105.254H44.9479L40.9711 129.664H18.5V105.254Z" fill="black"/>
<path d="M47.8955 103.7C48.0165 103.7 48.1311 103.755 48.207 103.85C48.283 103.944 48.3121 104.068 48.2861 104.186L43.1543 127.565C43.114 127.749 42.9515 127.88 42.7637 127.88H20.4248C20.2041 127.88 20.0247 127.701 20.0244 127.48V104.1C20.0244 103.88 20.2039 103.7 20.4248 103.7H47.8955Z" fill="#F4A41B" stroke="black" stroke-width="0.8" stroke-linejoin="round"/>
<mask id="mask2_44_1171" style="mask-type:alpha" maskUnits="userSpaceOnUse" x="20" y="104" width="28" height="24">
<path d="M20.4248 104.1H47.8955L42.7639 127.48H20.4248V104.1Z" fill="#D9D9D9"/>
</mask>
<g mask="url(#mask2_44_1171)">
<path d="M18.4727 101.435H47.8604V111.204L18.4727 120.271V101.435Z" fill="#FFC11E"/>
</g>
<circle cx="32" cy="116" r="8.65" fill="#A4A4A4" stroke="black" stroke-width="0.7"/>
<path d="M29.1515 109.027C31.4599 108.066 34.046 108.939 34.9279 110.976C35.5477 112.408 35.1591 114.033 34.0724 115.207C35.5509 115.357 36.8545 116.19 37.4308 117.521C38.3127 119.558 37.1562 121.989 34.8478 122.95C32.5395 123.91 29.9533 123.037 29.0715 121.001C28.4517 119.569 28.8394 117.943 29.926 116.769C28.4481 116.619 27.1447 115.786 26.5685 114.456C25.6867 112.418 26.8431 109.988 29.1515 109.027Z" fill="#E3E3E3"/>
<circle cx="32" cy="116" r="5.72727" fill="#747474"/>
<rect x="29.5454" y="118.864" width="4.90909" height="1.63636" rx="0.2" fill="#EDECEB"/>
<path d="M32 111.5C34.4853 111.5 36.9092 113.741 36.9092 116C36.9092 118.259 36.0908 119.682 32 119.682C27.9091 119.682 27.0908 118.259 27.0908 116C27.0908 113.741 29.5147 111.5 32 111.5ZM32.0869 117.541C32.0484 117.474 31.9516 117.474 31.9131 117.541L31.3779 118.469C31.3398 118.535 31.388 118.618 31.4648 118.618H32.5352C32.612 118.618 32.6601 118.535 32.6221 118.469L32.0869 117.541ZM29.75 115.591C28.9593 115.591 28.3185 116.232 28.3184 117.022C28.3184 117.813 28.9592 118.454 29.75 118.454C30.5407 118.454 31.1816 117.813 31.1816 117.022C31.1815 116.232 30.5406 115.591 29.75 115.591ZM34.25 115.591C33.4593 115.591 32.8185 116.232 32.8184 117.022C32.8184 117.813 33.4592 118.454 34.25 118.454C35.0407 118.454 35.6816 117.813 35.6816 117.022C35.6815 116.232 35.0406 115.591 34.25 115.591Z" fill="#EDECEB"/>
<ellipse cx="29.8933" cy="113.553" rx="1.63636" ry="1.0752" transform="rotate(-33.4483 29.8933 113.553)" fill="white"/>
<defs>
<filter id="filter0_d_44_1171" x="24.7457" y="48.8515" width="16.2775" height="14.2172" filterUnits="userSpaceOnUse" color-interpolation-filters="sRGB">
<feFlood flood-opacity="0" result="BackgroundImageFix"/>
<feColorMatrix in="SourceAlpha" type="matrix" values="0 0 0 0 0 0 0 0 0 0 0 0 0 0 0 0 0 0 127 0" result="hardAlpha"/>
<feOffset dx="-0.6" dy="1.5"/>
<feComposite in2="hardAlpha" operator="out"/>
<feColorMatrix type="matrix" values="0 0 0 0 0 0 0 0 0 0 0 0 0 0 0 0 0 0 1 0"/>
<feBlend mode="normal" in2="BackgroundImageFix" result="effect1_dropShadow_44_1171"/>
<feBlend mode="normal" in="SourceGraphic" in2="effect1_dropShadow_44_1171" result="shape"/>
</filter>
</defs>
</svg>
