<svg width="1897" height="2642" viewBox="0 0 1897 2642" fill="none" xmlns="http://www.w3.org/2000/svg" xmlns:xlink="http://www.w3.org/1999/xlink">
<path d="M618 2409C618 2375.31 645.311 2348 679 2348H1190C1223.69 2348 1251 2375.31 1251 2409V2576C1251 2612.45 1221.45 2642 1185 2642H688C649.34 2642 618 2610.66 618 2572V2409Z" fill="#979797" fill-opacity="0.8"/>
<path d="M151 2578C67.6051 2578 0.000118754 2511.34 0.000251261 2427.95C0.000934187 1998.14 0.00264498 755.27 0.000666816 161.308C0.000389071 77.9124 67.6056 11 151.001 11H1745.01C1828.4 11 1896 77.4309 1896 160.823C1896.01 636.676 1896 1975.75 1896 2427.22C1896 2510.61 1828.4 2578 1745 2578H151Z" fill="#A1A1A1" fill-opacity="0.6"/>
<path d="M79.5 2425.5C106.757 2457.15 134.935 2472.56 172.423 2479.05C181.461 2480.61 191.316 2480.99 200.5 2481C339.451 2481.14 1669.5 2481 1669.5 2481C1678.68 2480.99 1688.54 2480.61 1697.58 2479.05C1735.06 2472.56 1763.24 2457.15 1790.5 2425.5C1814.79 2397.3 1828 2368.78 1828 2337C1828 2337 1828 2072.32 1828 1939.5C1828 1455.34 1828 960.159 1828 476H1845C1845 1106.88 1846 2337 1846 2337V2412C1841.5 2440.5 1831.88 2459.81 1824.12 2470C1808.5 2490.5 1805.43 2497.36 1770.5 2518C1747.89 2530.27 1729 2535 1697.58 2535C1697.58 2535 280.435 2535.03 172.423 2535C146.774 2534.99 122.109 2530.27 99.5 2518C64.5737 2497.36 61.5 2490.5 45.8829 2470C38.1227 2459.81 28.5 2440.5 24 2412V2337C24 2337 25.0032 1106.88 25 476H42C42.0034 960.158 42.0041 1455.34 42 1939.5C41.9989 2072.32 42 2337 42 2337C43 2369 55.2125 2397.3 79.5 2425.5Z" fill="#2EB82E"/>
<path d="M176 2498C92.6051 2498 25.0002 2431.08 25.0003 2347.68C25.001 1956.32 25.0025 899.107 25.0007 363.308C25.0004 279.913 92.6056 213 176.001 213H1693C1776.39 213 1844 279.917 1844 363.309C1844 796.553 1844 1936.99 1844 2347.81C1843.99 2431.2 1776.39 2498 1693 2498H176Z" fill="#C2EFC2"/>
<path d="M191.224 2467.93C107.829 2467.93 40.2239 2401.06 40.2241 2317.67C40.2247 1923.73 40.2263 854.481 40.2245 316.298C40.2242 232.902 107.829 166 191.225 166H1677.51C1760.9 166 1828.5 232.882 1828.5 316.274C1828.51 751.942 1828.5 1904.34 1828.5 2317.7C1828.5 2401.09 1760.9 2467.93 1677.5 2467.93H191.224Z" fill="#E0F7E0"/>
<path d="M191.224 2467.93C107.829 2467.93 40.2239 2401.06 40.2241 2317.67C40.2247 1923.73 40.2263 854.481 40.2245 316.298C40.2242 232.902 107.829 166 191.225 166H1677.51C1760.9 166 1828.5 232.882 1828.5 316.274C1828.51 751.942 1828.5 1904.34 1828.5 2317.7C1828.5 2401.09 1760.9 2467.93 1677.5 2467.93H191.224Z" fill="url(#pattern0_16_154)" fill-opacity="0.5"/>
<rect x="100" y="1220" width="1697" height="900" rx="88" fill="#C2EFC2" stroke="#1C7A1C" stroke-width="17"/>
<path d="M25 141C25 76.935 76.935 25 141 25H1728C1792.07 25 1844 76.935 1844 141V346H25V141Z" fill="#58CF58"/>
<path d="M1827.99 173.293C1828.05 191.886 1827.86 345.945 1827.86 345.945C1785.03 345.994 1329.3 346.039 1286.5 345.945C1286.5 345.945 1514 303.5 1609 218.5C1679.57 155.355 1685.47 53.0027 1685.47 53.0027C1700.89 53.0027 1714.83 54.4698 1729.15 56.5711C1737.67 57.8192 1749.2 62.4313 1757.99 66.8755C1780.04 78.0166 1796.23 94.5147 1809.16 115.5C1818.25 130.256 1827.9 149.756 1827.99 173.293Z" fill="#1FA01F"/>
<path d="M40 345.945C40 345.945 40.0345 233.387 40 177.5C39.9807 146.157 49.6702 119.234 69.7294 96.1701C90.1024 72.7453 109.01 53.0027 161.176 53.0027C653.86 53.0026 1178.41 52.9967 1685.47 53.0027C1685.47 53.0027 1679.57 155.355 1609 218.5C1514 303.5 1286.5 345.945 1286.5 345.945H40Z" fill="#2EB82E"/>
<path d="M151.001 13H1718C1794.62 13.0002 1856.5 73.9834 1856.5 150.348C1856.5 621.866 1856.5 1936.98 1856.5 2384.03C1856.49 2460.51 1794.49 2522.5 1718 2522.5H151C74.4025 2522.5 12.4999 2461.36 12.5 2384.98C12.5007 1960.17 12.5029 741.637 12.501 150.826C12.5009 74.4074 74.4363 13 151.001 13Z" stroke="black" stroke-width="25"/>
<path d="M25 346H1845V371H25.0001L25 346Z" fill="black"/>
<path d="M1162 2289C1201.21 2289 1233 2320.79 1233 2360V2509C1233 2550.97 1198.97 2585 1157 2585H716C671.817 2585 636 2549.18 636 2505V2360C636 2320.79 667.788 2289 707 2289H1162Z" fill="#A0DCA0" stroke="black" stroke-width="20"/>
<path d="M658 2391C658 2352.34 689.34 2321 728 2321H1141C1179.66 2321 1211 2352.34 1211 2391V2520C1211 2550.38 1186.38 2575 1156 2575H713C682.624 2575 658 2550.38 658 2520V2391Z" fill="#0F5C0F"/>
<path d="M658 2391C658 2352.34 689.34 2321 728 2321H1141C1179.66 2321 1211 2352.34 1211 2391V2489C1211 2522.69 1183.69 2550 1150 2550H719C685.311 2550 658 2522.69 658 2489V2391Z" fill="#2A8C2A"/>
<defs>
<pattern id="pattern0_16_154" patternUnits="userSpaceOnUse" patternTransform="matrix(1448.15 0 0 724.077 40.2235 166)" preserveAspectRatio="none" viewBox="-0.000396729 0 1448.15 724.077" width="1" height="1">
<use xlink:href="#pattern0_16_154_inner" transform="translate(-724.077 -362.039)"/>
<use xlink:href="#pattern0_16_154_inner" transform="translate(0 -724.077)"/>
<use xlink:href="#pattern0_16_154_inner" transform="translate(724.077 -362.039)"/>
<use xlink:href="#pattern0_16_154_inner" transform="translate(-724.077 362.039)"/>
<g id="pattern0_16_154_inner">
<g clip-path="url(#clip0_16_154)">
<path d="M511.235 212.503C506.867 208.135 501.521 204.746 496.181 203.321L325.688 157.788C315.007 154.936 308.817 161.126 311.669 171.807L357.202 342.3C360.054 352.981 370.755 363.682 381.436 366.534L551.929 412.066C562.609 414.92 568.8 408.729 565.947 398.048L520.414 227.555C518.989 222.213 515.601 216.869 511.235 212.503ZM369.868 187.964C369.868 187.964 369.869 187.965 369.869 187.965C375.367 193.757 379.317 200.501 380.942 206.867C382.664 213.618 381.635 219.409 378.079 222.964C374.523 226.52 368.732 227.549 361.981 225.826C355.229 224.103 348.07 219.768 342.077 213.776C336.085 207.783 331.751 200.624 330.028 193.872C328.719 188.743 328.99 184.129 330.806 180.634C332.622 177.14 335.898 174.928 340.205 174.29C344.511 173.651 349.648 174.615 354.941 177.055C360.233 179.495 365.436 183.297 369.866 187.964L369.868 187.964ZM453.303 271.745C457.703 276.224 461.21 281.36 463.386 286.511C465.563 291.663 466.312 296.603 465.539 300.713C464.767 304.823 462.508 307.922 459.044 309.622C455.581 311.323 451.066 311.549 446.064 310.273C442.709 309.446 439.212 307.96 435.773 305.899C432.334 303.839 429.023 301.246 426.03 298.269C423.037 295.293 420.422 291.992 418.336 288.558C416.25 285.124 414.734 281.624 413.875 278.262C413.017 274.899 412.834 271.739 413.336 268.966C413.838 266.192 415.015 263.859 416.8 262.102C418.585 260.345 420.941 259.198 423.734 258.728C426.527 258.257 429.7 258.473 433.071 259.362C436.476 260.232 440.021 261.776 443.496 263.902C446.971 266.029 450.305 268.696 453.301 271.744L453.303 271.745ZM537.907 356.37C537.907 356.371 537.908 356.371 537.908 356.372C543.406 362.163 547.357 368.907 548.981 375.273C550.669 381.997 549.619 387.755 546.06 391.287C542.501 394.819 536.724 395.838 529.992 394.119C523.259 392.401 516.121 388.086 510.138 382.119C504.155 376.151 499.816 369.017 498.068 362.278C496.76 357.148 497.032 352.535 498.848 349.04C500.664 345.546 503.94 343.335 508.246 342.697C512.553 342.058 517.689 343.022 522.982 345.462C528.274 347.902 533.476 351.704 537.907 356.37ZM292.621 176.43C288.663 172.253 282.722 172.663 277.104 178.28L165.597 289.788C157.782 297.603 153.863 312.226 156.722 322.902L200.621 486.793C203.48 497.468 211.923 499.731 219.738 491.916L331.248 380.406C339.063 372.591 342.978 357.97 340.12 347.294L296.221 183.403C295.418 180.401 294.172 178.063 292.623 176.429L292.621 176.43ZM547.725 431.537C546.091 429.988 543.756 428.741 540.753 427.938L376.859 384.035C366.184 381.176 351.56 385.095 343.745 392.909L232.234 504.42C224.421 512.234 226.685 520.675 237.361 523.533L401.254 567.439C411.929 570.298 426.549 566.379 434.364 558.564L545.875 447.053C551.491 441.438 551.901 435.498 547.723 431.538L547.725 431.537ZM320.222 326.493C322.81 328.745 324.799 332.254 325.99 336.665C327.18 341.075 327.528 346.231 327 351.612C326.472 356.992 325.085 362.407 322.98 367.308C320.876 372.21 318.128 376.425 315.014 379.527C312.692 381.854 310.217 383.509 307.733 384.396C305.248 385.284 302.802 385.387 300.533 384.7C298.265 384.013 296.22 382.55 294.513 380.393C292.807 378.236 291.474 375.428 290.591 372.130C289.707 368.832 289.29 365.108 289.363 361.172C289.436 357.235 289.999 353.164 291.018 349.189C292.037 345.215 293.493 341.416 295.303 338.009C297.113 334.603 299.240 331.656 301.565 329.336C304.661 326.228 308.015 324.33 311.289 323.831C314.564 323.332 317.644 324.25 320.222 326.493ZM416.994 463.805C416.995 463.806 416.995 463.806 416.996 463.807C419.238 466.384 420.156 469.465 419.656 472.739C419.157 476.013 417.259 479.366 414.151 482.462C409.458 487.145 402.32 490.927 394.304 492.976C386.288 495.026 378.050 495.177 371.399 493.395C364.749 491.612 360.230 488.044 358.835 483.472C357.440 478.901 359.284 473.700 363.960 469.013C367.063 465.899 371.277 463.151 376.179 461.047C381.080 458.942 386.495 457.556 391.876 457.027C397.256 456.499 402.412 456.847 406.823 458.037C411.233 459.228 414.742 461.217 416.994 463.805ZM199.981 288.342C202.569 290.594 204.559 294.103 205.749 298.514C206.939 302.924 207.288 308.080 206.759 313.461C206.231 318.842 204.844 324.256 202.739 329.158C200.635 334.059 197.886 338.274 194.772 341.376C192.450 343.703 189.976 345.358 187.491 346.246C185.007 347.133 182.560 347.237 180.292 346.550C178.024 345.863 175.978 344.399 174.272 342.242C172.566 340.085 171.233 337.277 170.349 333.979C169.465 330.681 169.048 326.958 169.122 323.021C169.195 319.085 169.757 315.013 170.776 311.039C171.796 307.064 173.252 303.265 175.061 299.859C176.871 296.452 178.999 293.505 181.323 291.186C184.420 288.078 187.773 286.179 191.048 285.680C194.323 285.180 197.403 286.099 199.981 288.342Z" fill="url(#paint0_linear_16_154)"/>
</g>
</g>
<use xlink:href="#pattern0_16_154_inner" transform="translate(724.077 362.039)"/>
</pattern><linearGradient id="paint0_linear_16_154" x1="511.444" y1="212.712" x2="217.301" y2="506.855" gradientUnits="userSpaceOnUse">
<stop stop-color="white" stop-opacity="0.9"/>
<stop offset="1" stop-color="white" stop-opacity="0.3"/>
</linearGradient>
<clipPath id="clip0_16_154">
<rect width="512" height="512" fill="white" transform="translate(362.039) rotate(45)"/>
</clipPath>
</defs>
</svg>
