<svg width="1925" height="2565" viewBox="0 0 1925 2565" fill="none" xmlns="http://www.w3.org/2000/svg">
<path d="M104.5 2348.5C131.757 2380.15 159.935 2395.56 197.423 2402.05C206.461 2403.61 216.316 2403.99 225.5 2404C364.451 2404.14 1694.5 2404 1694.5 2404C1703.68 2403.99 1713.54 2403.61 1722.58 2402.05C1760.06 2395.56 1788.24 2380.15 1815.5 2348.5C1839.79 2320.3 1853 2291.78 1853 2260C1853 2260 1853 1995.32 1853 1862.5C1853 1378.34 1853 883.159 1853 399H1870C1870 1029.88 1871 2260 1871 2260V2335C1866.5 2363.5 1856.88 2382.81 1849.12 2393C1833.5 2413.5 1830.43 2420.36 1795.5 2441C1772.89 2453.27 1754 2458 1722.58 2458C1722.58 2458 305.435 2458.03 197.423 2458C171.774 2457.99 147.109 2453.27 124.5 2441C89.5737 2420.36 86.5 2413.5 70.8829 2393C63.1227 2382.81 53.5 2363.5 49 2335V2260C49 2260 50.0032 1029.88 50 399H67C67.0034 883.158 67.0041 1378.34 67 1862.5C66.9989 1995.32 67 2260 67 2260C68 2292 80.2125 2320.3 104.5 2348.5Z" fill="#6A7280"/>
<path d="M201 2438C117.605 2438 50.0001 2371.13 50.0003 2287.74C50.0009 1893.79 50.0025 824.498 50.0007 286.298C50.0004 202.903 117.606 136 201.001 136H1718C1801.39 136 1869 202.882 1869 286.273C1869 721.953 1869 1874.4 1869 2287.77C1868.99 2371.16 1801.39 2438 1718 2438H201Z" fill="#D2D6DC"/>
<path d="M216.224 2390.93C132.829 2390.93 65.2239 2324.06 65.2241 2240.67C65.2247 1846.73 65.2263 777.481 65.2245 239.298C65.2242 155.902 132.829 89 216.225 89H1702.51C1785.9 89 1853.5 155.882 1853.5 239.274C1853.51 674.942 1853.5 1827.34 1853.5 2240.7C1853.5 2324.09 1785.9 2390.93 1702.5 2390.93H216.224Z" fill="#E8EBEF"/>
<path d="M1686.35 1232.5C1702.76 1232.5 1722.26 1238.56 1737.74 1252.65C1753.44 1266.93 1764.47 1288.97 1764.47 1319.76C1764.47 1488.97 1764.52 1720.17 1764.49 1919.03C1764.48 1961.2 1729.78 1996.5 1687.88 1996.5C1203.06 1996.5 718.244 1996.49 233.425 1996.47V1996.47C191.394 1996.47 156.675 1960.53 156.636 1917.78C156.545 1819.84 156.579 1721.91 156.568 1623.99C156.558 1522.11 156.62 1420.25 156.5 1318.39V1318.38C156.5 1303.93 159.248 1282.61 171.539 1264.67C184.21 1246.17 206.183 1232.5 241.823 1232.5H1686.35Z" fill="#D2D6DC" stroke="#4E5460" stroke-width="17"/>
<path d="M50 189C50 124.935 101.935 73 166 73H1753C1817.07 73 1869 124.935 1869 189V394H50V189Z" fill="#A0A6B0"/>
<path d="M1853.99 221.293C1854.05 239.886 1853.86 393.945 1853.86 393.945C1811.03 393.994 1554.52 394.039 1511.72 393.945L1711.47 101.003C1726.89 101.003 1740.83 102.47 1755.15 104.571C1763.67 105.819 1775.2 110.431 1783.99 114.875C1806.04 126.017 1822.23 142.515 1835.16 163.5C1844.25 178.256 1853.9 197.756 1853.99 221.293Z" fill="#6F7580"/>
<path d="M65.0542 393.945C65.0542 393.945 65.0345 281.269 65 225.382C64.9807 194.039 75.6702 167.234 95.7294 144.17C116.102 120.745 135.01 101.003 187.176 101.003C679.86 101.003 1204.41 100.997 1711.47 101.003L1511.72 393.945L65.0542 393.945Z" fill="#7E848F"/>
<path d="M176.001 61.5H1743C1819.6 61.5001 1881.5 122.626 1881.5 199.008C1881.5 651.599 1881.5 1878.51 1881.5 2307.48C1881.49 2383.92 1819.54 2445.5 1743 2445.5H176C99.4079 2445.5 37.5001 2384.32 37.5 2307.93C37.5007 1899.95 37.5029 763.467 37.501 199.296C37.5007 122.88 99.4328 61.5 176.001 61.5Z" stroke="black" stroke-width="25"/>
<path d="M50 394H1870V419H50.0001L50 394Z" fill="black"/>
<path d="M1187 2212C1226.21 2212 1258 2243.79 1258 2283V2432C1258 2473.97 1223.97 2508 1182 2508H741C696.817 2508 661 2472.18 661 2428V2283C661 2243.79 692.788 2212 732 2212H1187Z" fill="#ADB2BB" stroke="black" stroke-width="20"/>
<path d="M683 2314C683 2275.34 714.34 2244 753 2244H1166C1204.66 2244 1236 2275.34 1236 2314V2451C1236 2476.96 1214.96 2498 1189 2498H730C704.043 2498 683 2476.96 683 2451V2314Z" fill="#2E3440"/>
<path d="M683 2314C683 2275.34 714.34 2244 753 2244H1166C1204.66 2244 1236 2275.34 1236 2314V2412C1236 2445.69 1208.69 2473 1175 2473H744C710.311 2473 683 2445.69 683 2412V2314Z" fill="#565C68"/>
</svg>
