<svg width="404" height="44" viewBox="0 0 404 44" fill="none" xmlns="http://www.w3.org/2000/svg">
<rect x="0.500002" y="43.5" width="43" height="403" rx="7.5" transform="rotate(-90 0.500002 43.5)" stroke="#000561"/>
<rect width="404" height="44" rx="8" transform="matrix(1 0 0 -1 1.9233e-06 44)" fill="#3C6AD0" fill-opacity="0.7"/>
<path d="M11 4H33C36.866 4 40 7.13401 40 11V33C40 36.866 36.866 40 33 40H11C7.13401 40 4 36.866 4 33V11C4 7.13401 7.13401 4 11 4Z" fill="#3A599D" stroke="#3C6AD0" stroke-width="2"/>
<path d="M51 4H73C76.866 4 80 7.13401 80 11V33C80 36.866 76.866 40 73 40H51C47.134 40 44 36.866 44 33V11C44 7.13401 47.134 4 51 4Z" fill="#3A599D" stroke="#3C6AD0" stroke-width="2"/>
<path d="M91 4H113C116.866 4 120 7.13401 120 11V33C120 36.866 116.866 40 113 40H91C87.134 40 84 36.866 84 33V11C84 7.13401 87.134 4 91 4Z" fill="#3A599D" stroke="#3C6AD0" stroke-width="2"/>
<path d="M131 4H153C156.866 4 160 7.13401 160 11V33C160 36.866 156.866 40 153 40H131C127.134 40 124 36.866 124 33V11C124 7.13401 127.134 4 131 4Z" fill="#3A599D" stroke="#3C6AD0" stroke-width="2"/>
<path d="M331 4H353C356.866 4 360 7.13401 360 11V33C360 36.866 356.866 40 353 40H331C327.134 40 324 36.866 324 33V11C324 7.13401 327.134 4 331 4Z" fill="#3A599D" stroke="#3C6AD0" stroke-width="2"/>
<path d="M371 4H393C396.866 4 400 7.13401 400 11V33C400 36.866 396.866 40 393 40H371C367.134 40 364 36.866 364 33V11C364 7.13401 367.134 4 371 4Z" fill="#3A599D" stroke="#3C6AD0" stroke-width="2"/>
<path d="M171 4H193C196.866 4 200 7.13401 200 11V33C200 36.866 196.866 40 193 40H171C167.134 40 164 36.866 164 33V11C164 7.13401 167.134 4 171 4Z" fill="#3A599D" stroke="#3C6AD0" stroke-width="2"/>
<path d="M211 4H233C236.866 4 240 7.13401 240 11V33C240 36.866 236.866 40 233 40H211C207.134 40 204 36.866 204 33V11C204 7.13401 207.134 4 211 4Z" fill="#3A599D" stroke="#3C6AD0" stroke-width="2"/>
<path d="M251 4H273C276.866 4 280 7.13401 280 11V33C280 36.866 276.866 40 273 40H251C247.134 40 244 36.866 244 33V11C244 7.13401 247.134 4 251 4Z" fill="#3A599D" stroke="#3C6AD0" stroke-width="2"/>
<path d="M291 4H313C316.866 4 320 7.13401 320 11V33C320 36.866 316.866 40 313 40H291C287.134 40 284 36.866 284 33V11C284 7.13401 287.134 4 291 4Z" fill="#3A599D" stroke="#3C6AD0" stroke-width="2"/>
</svg>
